<svg xmlns="http://www.w3.org/2000/svg" xmlns:dc="http://purl.org/dc/elements/1.1/" xmlns:ns2="http://creativecommons.org/ns#" xmlns:rdf="http://www.w3.org/1999/02/22-rdf-syntax-ns#" xmlns:xlink="http://www.w3.org/1999/xlink" width="263.0" height="181.0" viewBox="0.0 0.0 262.5 180.5">
<g id="graph0" class="graph" transform="scale(1.0 1.0) rotate(0) translate(4 176.5)">
<title>G</title>
<polygon fill="white" stroke="transparent" points="-4,4 -4,-176.5 258.5,-176.5 258.5,4 -4,4" />
<g id="clust2" class="cluster">
<title>cluster_legend</title>
</g>

<g id="node1" class="node">
<title>node0</title>
<svg height="45px" version="1.1" viewBox="0 0 206.41 59.296875" width="155px" preserveAspectRatio="xMinYMin meet" x="4.5" y="-163.5">
 <metadata>
  <rdf:RDF>
   <ns2:Work>
    <dc:type rdf:resource="http://purl.org/dc/dcmitype/StillImage" />
    <dc:date>2022-01-18T22:47:36.645984</dc:date>
    <dc:format>image/svg+xml</dc:format>
    <dc:creator>
     <ns2:Agent>
      <dc:title>Matplotlib v3.4.0, https://matplotlib.org/</dc:title>
     </ns2:Agent>
    </dc:creator>
   </ns2:Work>
  </rdf:RDF>
 </metadata>
 <defs>
  <style type="text/css">*{stroke-linecap:butt;stroke-linejoin:round;}</style>
 </defs>
 <g id="figure_1">
  <g id="patch_1">
   <path d="M 0 59.296875  L 206.41 59.296875  L 206.41 0  L 0 0  z " style="fill:#ffffff;" />
  </g>
  <g id="axes_1">
   <g id="patch_2">
    <path d="M 22.27 29.439375  L 206.41 29.439375  L 206.41 1.719375  L 22.27 1.719375  z " style="fill:#ffffff;" />
   </g>
   <g id="patch_3">
    <path clip-path="url(#p530a54b7ad)" d="M 22.27 29.439375  L 31.500075 29.439375  L 31.500075 21.021984  L 22.27 21.021984  z " style="fill:#fefebb;stroke:#444443;stroke-linejoin:miter;stroke-width:0.5;" />
   </g>
   <g id="patch_4">
    <path clip-path="url(#p530a54b7ad)" d="M 31.500075 29.439375  L 40.73015 29.439375  L 40.73015 29.439375  L 31.500075 29.439375  z " style="fill:#fefebb;stroke:#444443;stroke-linejoin:miter;stroke-width:0.5;" />
   </g>
   <g id="patch_5">
    <path clip-path="url(#p530a54b7ad)" d="M 40.73015 29.439375  L 49.960226 29.439375  L 49.960226 29.439375  L 40.73015 29.439375  z " style="fill:#fefebb;stroke:#444443;stroke-linejoin:miter;stroke-width:0.5;" />
   </g>
   <g id="patch_6">
    <path clip-path="url(#p530a54b7ad)" d="M 49.960226 29.439375  L 59.190301 29.439375  L 59.190301 29.439375  L 49.960226 29.439375  z " style="fill:#fefebb;stroke:#444443;stroke-linejoin:miter;stroke-width:0.5;" />
   </g>
   <g id="patch_7">
    <path clip-path="url(#p530a54b7ad)" d="M 59.190301 29.439375  L 68.420376 29.439375  L 68.420376 29.439375  L 59.190301 29.439375  z " style="fill:#fefebb;stroke:#444443;stroke-linejoin:miter;stroke-width:0.5;" />
   </g>
   <g id="patch_8">
    <path clip-path="url(#p530a54b7ad)" d="M 68.420376 29.439375  L 77.650451 29.439375  L 77.650451 29.439375  L 68.420376 29.439375  z " style="fill:#fefebb;stroke:#444443;stroke-linejoin:miter;stroke-width:0.5;" />
   </g>
   <g id="patch_9">
    <path clip-path="url(#p530a54b7ad)" d="M 77.650451 29.439375  L 86.880526 29.439375  L 86.880526 29.439375  L 77.650451 29.439375  z " style="fill:#fefebb;stroke:#444443;stroke-linejoin:miter;stroke-width:0.5;" />
   </g>
   <g id="patch_10">
    <path clip-path="url(#p530a54b7ad)" d="M 86.880526 29.439375  L 96.110602 29.439375  L 96.110602 29.439375  L 86.880526 29.439375  z " style="fill:#fefebb;stroke:#444443;stroke-linejoin:miter;stroke-width:0.5;" />
   </g>
   <g id="patch_11">
    <path clip-path="url(#p530a54b7ad)" d="M 96.110602 29.439375  L 105.340677 29.439375  L 105.340677 29.439375  L 96.110602 29.439375  z " style="fill:#fefebb;stroke:#444443;stroke-linejoin:miter;stroke-width:0.5;" />
   </g>
   <g id="patch_12">
    <path clip-path="url(#p530a54b7ad)" d="M 105.340677 29.439375  L 114.570752 29.439375  L 114.570752 29.439375  L 105.340677 29.439375  z " style="fill:#fefebb;stroke:#444443;stroke-linejoin:miter;stroke-width:0.5;" />
   </g>
   <g id="patch_13">
    <path clip-path="url(#p530a54b7ad)" d="M 114.570752 29.439375  L 123.800827 29.439375  L 123.800827 29.439375  L 114.570752 29.439375  z " style="fill:#fefebb;stroke:#444443;stroke-linejoin:miter;stroke-width:0.5;" />
   </g>
   <g id="patch_14">
    <path clip-path="url(#p530a54b7ad)" d="M 123.800827 29.439375  L 133.030902 29.439375  L 133.030902 29.439375  L 123.800827 29.439375  z " style="fill:#fefebb;stroke:#444443;stroke-linejoin:miter;stroke-width:0.5;" />
   </g>
   <g id="patch_15">
    <path clip-path="url(#p530a54b7ad)" d="M 133.030902 29.439375  L 142.260977 29.439375  L 142.260977 29.439375  L 133.030902 29.439375  z " style="fill:#fefebb;stroke:#444443;stroke-linejoin:miter;stroke-width:0.5;" />
   </g>
   <g id="patch_16">
    <path clip-path="url(#p530a54b7ad)" d="M 142.260977 29.439375  L 151.491053 29.439375  L 151.491053 29.439375  L 142.260977 29.439375  z " style="fill:#fefebb;stroke:#444443;stroke-linejoin:miter;stroke-width:0.5;" />
   </g>
   <g id="patch_17">
    <path clip-path="url(#p530a54b7ad)" d="M 151.491053 29.439375  L 160.721128 29.439375  L 160.721128 29.439375  L 151.491053 29.439375  z " style="fill:#fefebb;stroke:#444443;stroke-linejoin:miter;stroke-width:0.5;" />
   </g>
   <g id="patch_18">
    <path clip-path="url(#p530a54b7ad)" d="M 160.721128 29.439375  L 169.951203 29.439375  L 169.951203 29.439375  L 160.721128 29.439375  z " style="fill:#fefebb;stroke:#444443;stroke-linejoin:miter;stroke-width:0.5;" />
   </g>
   <g id="patch_19">
    <path clip-path="url(#p530a54b7ad)" d="M 169.951203 29.439375  L 179.181278 29.439375  L 179.181278 29.439375  L 169.951203 29.439375  z " style="fill:#fefebb;stroke:#444443;stroke-linejoin:miter;stroke-width:0.5;" />
   </g>
   <g id="patch_20">
    <path clip-path="url(#p530a54b7ad)" d="M 179.181278 29.439375  L 188.411353 29.439375  L 188.411353 29.439375  L 179.181278 29.439375  z " style="fill:#fefebb;stroke:#444443;stroke-linejoin:miter;stroke-width:0.5;" />
   </g>
   <g id="patch_21">
    <path clip-path="url(#p530a54b7ad)" d="M 188.411353 29.439375  L 197.641429 29.439375  L 197.641429 24.082853  L 188.411353 24.082853  z " style="fill:#fefebb;stroke:#444443;stroke-linejoin:miter;stroke-width:0.5;" />
   </g>
   <g id="patch_22">
    <path clip-path="url(#p530a54b7ad)" d="M 22.27 21.021984  L 31.500075 21.021984  L 31.500075 3.039375  L 22.27 3.039375  z " style="fill:#a1dab4;stroke:#444443;stroke-linejoin:miter;stroke-width:0.5;" />
   </g>
   <g id="patch_23">
    <path clip-path="url(#p530a54b7ad)" d="M 31.500075 29.439375  L 40.73015 29.439375  L 40.73015 29.439375  L 31.500075 29.439375  z " style="fill:#a1dab4;stroke:#444443;stroke-linejoin:miter;stroke-width:0.5;" />
   </g>
   <g id="patch_24">
    <path clip-path="url(#p530a54b7ad)" d="M 40.73015 29.439375  L 49.960226 29.439375  L 49.960226 29.439375  L 40.73015 29.439375  z " style="fill:#a1dab4;stroke:#444443;stroke-linejoin:miter;stroke-width:0.5;" />
   </g>
   <g id="patch_25">
    <path clip-path="url(#p530a54b7ad)" d="M 49.960226 29.439375  L 59.190301 29.439375  L 59.190301 29.439375  L 49.960226 29.439375  z " style="fill:#a1dab4;stroke:#444443;stroke-linejoin:miter;stroke-width:0.5;" />
   </g>
   <g id="patch_26">
    <path clip-path="url(#p530a54b7ad)" d="M 59.190301 29.439375  L 68.420376 29.439375  L 68.420376 29.439375  L 59.190301 29.439375  z " style="fill:#a1dab4;stroke:#444443;stroke-linejoin:miter;stroke-width:0.5;" />
   </g>
   <g id="patch_27">
    <path clip-path="url(#p530a54b7ad)" d="M 68.420376 29.439375  L 77.650451 29.439375  L 77.650451 29.439375  L 68.420376 29.439375  z " style="fill:#a1dab4;stroke:#444443;stroke-linejoin:miter;stroke-width:0.5;" />
   </g>
   <g id="patch_28">
    <path clip-path="url(#p530a54b7ad)" d="M 77.650451 29.439375  L 86.880526 29.439375  L 86.880526 29.439375  L 77.650451 29.439375  z " style="fill:#a1dab4;stroke:#444443;stroke-linejoin:miter;stroke-width:0.5;" />
   </g>
   <g id="patch_29">
    <path clip-path="url(#p530a54b7ad)" d="M 86.880526 29.439375  L 96.110602 29.439375  L 96.110602 29.439375  L 86.880526 29.439375  z " style="fill:#a1dab4;stroke:#444443;stroke-linejoin:miter;stroke-width:0.5;" />
   </g>
   <g id="patch_30">
    <path clip-path="url(#p530a54b7ad)" d="M 96.110602 29.439375  L 105.340677 29.439375  L 105.340677 29.439375  L 96.110602 29.439375  z " style="fill:#a1dab4;stroke:#444443;stroke-linejoin:miter;stroke-width:0.5;" />
   </g>
   <g id="patch_31">
    <path clip-path="url(#p530a54b7ad)" d="M 105.340677 29.439375  L 114.570752 29.439375  L 114.570752 29.439375  L 105.340677 29.439375  z " style="fill:#a1dab4;stroke:#444443;stroke-linejoin:miter;stroke-width:0.5;" />
   </g>
   <g id="patch_32">
    <path clip-path="url(#p530a54b7ad)" d="M 114.570752 29.439375  L 123.800827 29.439375  L 123.800827 29.439375  L 114.570752 29.439375  z " style="fill:#a1dab4;stroke:#444443;stroke-linejoin:miter;stroke-width:0.5;" />
   </g>
   <g id="patch_33">
    <path clip-path="url(#p530a54b7ad)" d="M 123.800827 29.439375  L 133.030902 29.439375  L 133.030902 29.439375  L 123.800827 29.439375  z " style="fill:#a1dab4;stroke:#444443;stroke-linejoin:miter;stroke-width:0.5;" />
   </g>
   <g id="patch_34">
    <path clip-path="url(#p530a54b7ad)" d="M 133.030902 29.439375  L 142.260977 29.439375  L 142.260977 29.439375  L 133.030902 29.439375  z " style="fill:#a1dab4;stroke:#444443;stroke-linejoin:miter;stroke-width:0.5;" />
   </g>
   <g id="patch_35">
    <path clip-path="url(#p530a54b7ad)" d="M 142.260977 29.439375  L 151.491053 29.439375  L 151.491053 29.439375  L 142.260977 29.439375  z " style="fill:#a1dab4;stroke:#444443;stroke-linejoin:miter;stroke-width:0.5;" />
   </g>
   <g id="patch_36">
    <path clip-path="url(#p530a54b7ad)" d="M 151.491053 29.439375  L 160.721128 29.439375  L 160.721128 29.439375  L 151.491053 29.439375  z " style="fill:#a1dab4;stroke:#444443;stroke-linejoin:miter;stroke-width:0.5;" />
   </g>
   <g id="patch_37">
    <path clip-path="url(#p530a54b7ad)" d="M 160.721128 29.439375  L 169.951203 29.439375  L 169.951203 29.439375  L 160.721128 29.439375  z " style="fill:#a1dab4;stroke:#444443;stroke-linejoin:miter;stroke-width:0.5;" />
   </g>
   <g id="patch_38">
    <path clip-path="url(#p530a54b7ad)" d="M 169.951203 29.439375  L 179.181278 29.439375  L 179.181278 29.439375  L 169.951203 29.439375  z " style="fill:#a1dab4;stroke:#444443;stroke-linejoin:miter;stroke-width:0.5;" />
   </g>
   <g id="patch_39">
    <path clip-path="url(#p530a54b7ad)" d="M 179.181278 29.439375  L 188.411353 29.439375  L 188.411353 29.439375  L 179.181278 29.439375  z " style="fill:#a1dab4;stroke:#444443;stroke-linejoin:miter;stroke-width:0.5;" />
   </g>
   <g id="patch_40">
    <path clip-path="url(#p530a54b7ad)" d="M 188.411353 24.082853  L 197.641429 24.082853  L 197.641429 7.248071  L 188.411353 7.248071  z " style="fill:#a1dab4;stroke:#444443;stroke-linejoin:miter;stroke-width:0.5;" />
   </g>
   <g id="patch_41">
    <path d="M 109.955714 30.270975  L 106.641194 37.755375  L 113.270234 37.755375  z " style="fill:#444443;" />
   </g>
   <g id="matplotlib.axis_1">
    <g id="xtick_1">
     <g id="line2d_1">
      <defs>
       <path d="M 0 0  L 0 3.5  " id="me81411f95f" style="stroke:#000000;stroke-width:0.3;" />
      </defs>
      <g>
       <use style="stroke:#000000;stroke-width:0.3;" x="22.27" xlink:href="#me81411f95f" y="29.439375" />
      </g>
     </g>
     <g id="text_1">
      
      <g style="fill:#444443;" transform="translate(19.725 42.518125)scale(0.08 -0.08)">
       <defs>
        <path d="M 2034 4250  Q 1547 4250 1301 3770  Q 1056 3291 1056 2328  Q 1056 1369 1301 889  Q 1547 409 2034 409  Q 2525 409 2770 889  Q 3016 1369 3016 2328  Q 3016 3291 2770 3770  Q 2525 4250 2034 4250  z M 2034 4750  Q 2819 4750 3233 4129  Q 3647 3509 3647 2328  Q 3647 1150 3233 529  Q 2819 -91 2034 -91  Q 1250 -91 836 529  Q 422 1150 422 2328  Q 422 3509 836 4129  Q 1250 4750 2034 4750  z " id="DejaVuSans-30" transform="scale(0.015625)" />
       </defs>
       <use xlink:href="#DejaVuSans-30" />
      </g>
     </g>
    </g>
    <g id="xtick_2">
     <g id="line2d_2">
      <g>
       <use style="stroke:#000000;stroke-width:0.3;" x="197.641429" xlink:href="#me81411f95f" y="29.439375" />
      </g>
     </g>
     <g id="text_2">
      
      <g style="fill:#444443;" transform="translate(195.096429 42.518125)scale(0.08 -0.08)">
       <defs>
        <path d="M 794 531  L 1825 531  L 1825 4091  L 703 3866  L 703 4441  L 1819 4666  L 2450 4666  L 2450 531  L 3481 531  L 3481 0  L 794 0  L 794 531  z " id="DejaVuSans-31" transform="scale(0.015625)" />
       </defs>
       <use xlink:href="#DejaVuSans-31" />
      </g>
     </g>
    </g>
    <g id="text_3">
     
     <g style="fill:#444443;" transform="translate(79.31875 56.77125)scale(0.12 -0.12)">
      <defs>
       <path d="M 319 -275  L 866 -356  Q 900 -609 1056 -725  Q 1266 -881 1628 -881  Q 2019 -881 2231 -725  Q 2444 -569 2519 -288  Q 2563 -116 2559 434  Q 2191 0 1641 0  Q 956 0 581 494  Q 206 988 206 1678  Q 206 2153 378 2554  Q 550 2956 876 3175  Q 1203 3394 1644 3394  Q 2231 3394 2613 2919  L 2613 3319  L 3131 3319  L 3131 450  Q 3131 -325 2973 -648  Q 2816 -972 2473 -1159  Q 2131 -1347 1631 -1347  Q 1038 -1347 672 -1080  Q 306 -813 319 -275  z M 784 1719  Q 784 1066 1043 766  Q 1303 466 1694 466  Q 2081 466 2343 764  Q 2606 1063 2606 1700  Q 2606 2309 2336 2618  Q 2066 2928 1684 2928  Q 1309 2928 1046 2623  Q 784 2319 784 1719  z " id="ArialMT-67" transform="scale(0.015625)" />
       <path d="M 2694 1069  L 3275 997  Q 3138 488 2766 206  Q 2394 -75 1816 -75  Q 1088 -75 661 373  Q 234 822 234 1631  Q 234 2469 665 2931  Q 1097 3394 1784 3394  Q 2450 3394 2872 2941  Q 3294 2488 3294 1666  Q 3294 1616 3291 1516  L 816 1516  Q 847 969 1125 678  Q 1403 388 1819 388  Q 2128 388 2347 550  Q 2566 713 2694 1069  z M 847 1978  L 2700 1978  Q 2663 2397 2488 2606  Q 2219 2931 1791 2931  Q 1403 2931 1139 2672  Q 875 2413 847 1978  z " id="ArialMT-65" transform="scale(0.015625)" />
       <path d="M 422 0  L 422 3319  L 928 3319  L 928 2847  Q 1294 3394 1984 3394  Q 2284 3394 2536 3286  Q 2788 3178 2913 3003  Q 3038 2828 3088 2588  Q 3119 2431 3119 2041  L 3119 0  L 2556 0  L 2556 2019  Q 2556 2363 2490 2533  Q 2425 2703 2258 2804  Q 2091 2906 1866 2906  Q 1506 2906 1245 2678  Q 984 2450 984 1813  L 984 0  L 422 0  z " id="ArialMT-6e" transform="scale(0.015625)" />
       <path d="M 2575 0  L 2575 419  Q 2259 -75 1647 -75  Q 1250 -75 917 144  Q 584 363 401 755  Q 219 1147 219 1656  Q 219 2153 384 2558  Q 550 2963 881 3178  Q 1213 3394 1622 3394  Q 1922 3394 2156 3267  Q 2391 3141 2538 2938  L 2538 4581  L 3097 4581  L 3097 0  L 2575 0  z M 797 1656  Q 797 1019 1065 703  Q 1334 388 1700 388  Q 2069 388 2326 689  Q 2584 991 2584 1609  Q 2584 2291 2321 2609  Q 2059 2928 1675 2928  Q 1300 2928 1048 2622  Q 797 2316 797 1656  z " id="ArialMT-64" transform="scale(0.015625)" />
       <path d="M 416 0  L 416 3319  L 922 3319  L 922 2816  Q 1116 3169 1280 3281  Q 1444 3394 1641 3394  Q 1925 3394 2219 3213  L 2025 2691  Q 1819 2813 1613 2813  Q 1428 2813 1281 2702  Q 1134 2591 1072 2394  Q 978 2094 978 1738  L 978 0  L 416 0  z " id="ArialMT-72" transform="scale(0.015625)" />
       <path d="M -97 -1272  L -97 -866  L 3631 -866  L 3631 -1272  L -97 -1272  z " id="ArialMT-5f" transform="scale(0.015625)" />
       <path d="M 422 0  L 422 3319  L 925 3319  L 925 2853  Q 1081 3097 1340 3245  Q 1600 3394 1931 3394  Q 2300 3394 2536 3241  Q 2772 3088 2869 2813  Q 3263 3394 3894 3394  Q 4388 3394 4653 3120  Q 4919 2847 4919 2278  L 4919 0  L 4359 0  L 4359 2091  Q 4359 2428 4304 2576  Q 4250 2725 4106 2815  Q 3963 2906 3769 2906  Q 3419 2906 3187 2673  Q 2956 2441 2956 1928  L 2956 0  L 2394 0  L 2394 2156  Q 2394 2531 2256 2718  Q 2119 2906 1806 2906  Q 1569 2906 1367 2781  Q 1166 2656 1075 2415  Q 984 2175 984 1722  L 984 0  L 422 0  z " id="ArialMT-6d" transform="scale(0.015625)" />
       <path d="M 2588 409  Q 2275 144 1986 34  Q 1697 -75 1366 -75  Q 819 -75 525 192  Q 231 459 231 875  Q 231 1119 342 1320  Q 453 1522 633 1644  Q 813 1766 1038 1828  Q 1203 1872 1538 1913  Q 2219 1994 2541 2106  Q 2544 2222 2544 2253  Q 2544 2597 2384 2738  Q 2169 2928 1744 2928  Q 1347 2928 1158 2789  Q 969 2650 878 2297  L 328 2372  Q 403 2725 575 2942  Q 747 3159 1072 3276  Q 1397 3394 1825 3394  Q 2250 3394 2515 3294  Q 2781 3194 2906 3042  Q 3031 2891 3081 2659  Q 3109 2516 3109 2141  L 3109 1391  Q 3109 606 3145 398  Q 3181 191 3288 0  L 2700 0  Q 2613 175 2588 409  z M 2541 1666  Q 2234 1541 1622 1453  Q 1275 1403 1131 1340  Q 988 1278 909 1158  Q 831 1038 831 891  Q 831 666 1001 516  Q 1172 366 1500 366  Q 1825 366 2078 508  Q 2331 650 2450 897  Q 2541 1088 2541 1459  L 2541 1666  z " id="ArialMT-61" transform="scale(0.015625)" />
       <path d="M 409 0  L 409 4581  L 972 4581  L 972 0  L 409 0  z " id="ArialMT-6c" transform="scale(0.015625)" />
      </defs>
      <use xlink:href="#ArialMT-67" />
      <use x="55.615234" xlink:href="#ArialMT-65" />
      <use x="111.230469" xlink:href="#ArialMT-6e" />
      <use x="166.845703" xlink:href="#ArialMT-64" />
      <use x="222.460938" xlink:href="#ArialMT-65" />
      <use x="278.076172" xlink:href="#ArialMT-72" />
      <use x="311.376953" xlink:href="#ArialMT-5f" />
      <use x="366.992188" xlink:href="#ArialMT-6d" />
      <use x="450.292969" xlink:href="#ArialMT-61" />
      <use x="505.908203" xlink:href="#ArialMT-6c" />
      <use x="528.125" xlink:href="#ArialMT-65" />
     </g>
    </g>
   </g>
   <g id="matplotlib.axis_2">
    <g id="ytick_1">
     <g id="line2d_3">
      <defs>
       <path d="M 0 0  L -3.5 0  " id="m5e6c599e23" style="stroke:#000000;stroke-width:0.3;" />
      </defs>
      <g>
       <use style="stroke:#000000;stroke-width:0.3;" x="22.27" xlink:href="#m5e6c599e23" y="29.439375" />
      </g>
     </g>
     <g id="text_4">
      
      <g style="fill:#444443;" transform="translate(10.18 32.47875)scale(0.08 -0.08)">
       <use xlink:href="#DejaVuSans-30" />
      </g>
     </g>
    </g>
    <g id="ytick_2">
     <g id="line2d_4">
      <g>
       <use style="stroke:#000000;stroke-width:0.3;" x="22.27" xlink:href="#m5e6c599e23" y="3.039375" />
      </g>
     </g>
     <g id="text_5">
      
      <g style="fill:#444443;" transform="translate(0 6.07875)scale(0.08 -0.08)">
       <defs>
        <path d="M 2597 2516  Q 3050 2419 3304 2112  Q 3559 1806 3559 1356  Q 3559 666 3084 287  Q 2609 -91 1734 -91  Q 1441 -91 1130 -33  Q 819 25 488 141  L 488 750  Q 750 597 1062 519  Q 1375 441 1716 441  Q 2309 441 2620 675  Q 2931 909 2931 1356  Q 2931 1769 2642 2001  Q 2353 2234 1838 2234  L 1294 2234  L 1294 2753  L 1863 2753  Q 2328 2753 2575 2939  Q 2822 3125 2822 3475  Q 2822 3834 2567 4026  Q 2313 4219 1838 4219  Q 1578 4219 1281 4162  Q 984 4106 628 3988  L 628 4550  Q 988 4650 1302 4700  Q 1616 4750 1894 4750  Q 2613 4750 3031 4423  Q 3450 4097 3450 3541  Q 3450 3153 3228 2886  Q 3006 2619 2597 2516  z " id="DejaVuSans-33" transform="scale(0.015625)" />
        <path d="M 2034 2216  Q 1584 2216 1326 1975  Q 1069 1734 1069 1313  Q 1069 891 1326 650  Q 1584 409 2034 409  Q 2484 409 2743 651  Q 3003 894 3003 1313  Q 3003 1734 2745 1975  Q 2488 2216 2034 2216  z M 1403 2484  Q 997 2584 770 2862  Q 544 3141 544 3541  Q 544 4100 942 4425  Q 1341 4750 2034 4750  Q 2731 4750 3128 4425  Q 3525 4100 3525 3541  Q 3525 3141 3298 2862  Q 3072 2584 2669 2484  Q 3125 2378 3379 2068  Q 3634 1759 3634 1313  Q 3634 634 3220 271  Q 2806 -91 2034 -91  Q 1263 -91 848 271  Q 434 634 434 1313  Q 434 1759 690 2068  Q 947 2378 1403 2484  z M 1172 3481  Q 1172 3119 1398 2916  Q 1625 2713 2034 2713  Q 2441 2713 2670 2916  Q 2900 3119 2900 3481  Q 2900 3844 2670 4047  Q 2441 4250 2034 4250  Q 1625 4250 1398 4047  Q 1172 3844 1172 3481  z " id="DejaVuSans-38" transform="scale(0.015625)" />
       </defs>
       <use xlink:href="#DejaVuSans-31" />
       <use x="63.623047" xlink:href="#DejaVuSans-33" />
       <use x="127.246094" xlink:href="#DejaVuSans-38" />
      </g>
     </g>
    </g>
   </g>
   <g id="patch_42">
    <path d="M 22.27 29.439375  L 22.27 1.719375  " style="fill:none;stroke:#000000;stroke-linecap:square;stroke-linejoin:miter;stroke-width:0.3;" />
   </g>
   <g id="patch_43">
    <path d="M 22.27 29.439375  L 206.41 29.439375  " style="fill:none;stroke:#000000;stroke-linecap:square;stroke-linejoin:miter;stroke-width:0.3;" />
   </g>
   <g id="text_6">
    
    <g style="fill:#444443;" transform="translate(102.171339 46.071375)scale(0.08 -0.08)">
     <defs>
      <path d="M 266 2259  Q 266 3072 433 3567  Q 600 4063 929 4331  Q 1259 4600 1759 4600  Q 2128 4600 2406 4451  Q 2684 4303 2865 4023  Q 3047 3744 3150 3342  Q 3253 2941 3253 2259  Q 3253 1453 3087 958  Q 2922 463 2592 192  Q 2263 -78 1759 -78  Q 1097 -78 719 397  Q 266 969 266 2259  z M 844 2259  Q 844 1131 1108 757  Q 1372 384 1759 384  Q 2147 384 2411 759  Q 2675 1134 2675 2259  Q 2675 3391 2411 3762  Q 2147 4134 1753 4134  Q 1366 4134 1134 3806  Q 844 3388 844 2259  z " id="ArialMT-30" transform="scale(0.015625)" />
      <path d="M 581 0  L 581 641  L 1222 641  L 1222 0  L 581 0  z " id="ArialMT-2e" transform="scale(0.015625)" />
      <path d="M 266 1200  L 856 1250  Q 922 819 1161 601  Q 1400 384 1738 384  Q 2144 384 2425 690  Q 2706 997 2706 1503  Q 2706 1984 2436 2262  Q 2166 2541 1728 2541  Q 1456 2541 1237 2417  Q 1019 2294 894 2097  L 366 2166  L 809 4519  L 3088 4519  L 3088 3981  L 1259 3981  L 1013 2750  Q 1425 3038 1878 3038  Q 2478 3038 2890 2622  Q 3303 2206 3303 1553  Q 3303 931 2941 478  Q 2500 -78 1738 -78  Q 1113 -78 717 272  Q 322 622 266 1200  z " id="ArialMT-35" transform="scale(0.015625)" />
     </defs>
     <use xlink:href="#ArialMT-30" />
     <use x="55.615234" xlink:href="#ArialMT-2e" />
     <use x="83.398438" xlink:href="#ArialMT-35" />
     <use x="139.013672" xlink:href="#ArialMT-30" />
    </g>
   </g>
  </g>
 </g>
 <defs>
  <clipPath id="p530a54b7ad">
   <rect height="27.72" width="184.14" x="22.27" y="1.719375" />
  </clipPath>
 </defs>
</svg></g>

<g id="node2" class="node">
<title>leaf1</title>
<polygon fill="none" stroke="#444443" stroke-width="0" points="74.5,-84 6.5,-84 6.5,0 74.5,0 74.5,-84" />
<svg height="76px" version="1.1" viewBox="0 0 80.07999 101.033161" width="60px" preserveAspectRatio="xMinYMin meet" x="10.5" y="-80">
 <metadata>
  <rdf:RDF>
   <ns2:Work>
    <dc:type rdf:resource="http://purl.org/dc/dcmitype/StillImage" />
    <dc:date>2022-01-18T22:47:36.729235</dc:date>
    <dc:format>image/svg+xml</dc:format>
    <dc:creator>
     <ns2:Agent>
      <dc:title>Matplotlib v3.4.0, https://matplotlib.org/</dc:title>
     </ns2:Agent>
    </dc:creator>
   </ns2:Work>
  </rdf:RDF>
 </metadata>
 <defs>
  <style type="text/css">*{stroke-linecap:butt;stroke-linejoin:round;}</style>
 </defs>
 <g id="figure_1">
  <g id="patch_1">
   <path d="M 0 101.033161  L 80.07999 101.033161  L 80.07999 0  L 0 0  z " style="fill:#ffffff;" />
  </g>
  <g id="axes_1">
   <g id="patch_2">
    <path d="M 80.07999 40.039992  C 80.07999 33.320799 78.388648 26.708466 75.162381 20.814508  C 71.936114 14.920549 67.277541 9.932435 61.61749 6.311471  C 55.957439 2.690508 49.475942 0.551868 42.772414 0.093334  C 36.068885 -0.365199 29.356546 0.870959 23.256159 3.687487  L 40.03999 40.039992  L 80.07999 40.039992  z " style="fill:#fefebb;stroke:#444443;stroke-linejoin:miter;stroke-width:0.5;" />
   </g>
   <g id="patch_3">
    <path d="M 23.256159 3.687487  C 16.735119 6.69823 11.142767 11.408878 7.067811 17.323544  C 2.992855 23.238209 0.583484 30.141798 0.093332 37.30757  C -0.396819 44.473342 1.050074 51.640706 4.281697 58.055155  C 7.51332 64.469603 12.412152 69.897867 18.462493 73.768514  C 24.512834 77.639162 31.494657 79.811432 38.672986 80.05665  C 45.851315 80.301868 52.965102 78.611116 59.265479 75.16238  C 65.565857 71.713644 70.823705 66.632341 74.48553 60.453379  C 78.147355 54.274417 80.079991 47.2225 80.07999 40.039984  L 40.03999 40.039992  L 23.256159 3.687487  z " style="fill:#a1dab4;stroke:#444443;stroke-linejoin:miter;stroke-width:0.5;" />
   </g>
   <g id="text_1">
    
    <g style="fill:#444443;" transform="translate(27.402021 89.725223)scale(0.09 -0.09)">
     <defs>
      <path d="M 422 0  L 422 3319  L 928 3319  L 928 2847  Q 1294 3394 1984 3394  Q 2284 3394 2536 3286  Q 2788 3178 2913 3003  Q 3038 2828 3088 2588  Q 3119 2431 3119 2041  L 3119 0  L 2556 0  L 2556 2019  Q 2556 2363 2490 2533  Q 2425 2703 2258 2804  Q 2091 2906 1866 2906  Q 1506 2906 1245 2678  Q 984 2450 984 1813  L 984 0  L 422 0  z " id="ArialMT-6e" transform="scale(0.015625)" />
      <path d="M 3381 2694  L 356 2694  L 356 3219  L 3381 3219  L 3381 2694  z M 3381 1303  L 356 1303  L 356 1828  L 3381 1828  L 3381 1303  z " id="ArialMT-3d" transform="scale(0.015625)" />
      <path d="M 2384 0  L 1822 0  L 1822 3584  Q 1619 3391 1289 3197  Q 959 3003 697 2906  L 697 3450  Q 1169 3672 1522 3987  Q 1875 4303 2022 4600  L 2384 4600  L 2384 0  z " id="ArialMT-31" transform="scale(0.015625)" />
      <path d="M 269 1209  L 831 1284  Q 928 806 1161 595  Q 1394 384 1728 384  Q 2125 384 2398 659  Q 2672 934 2672 1341  Q 2672 1728 2419 1979  Q 2166 2231 1775 2231  Q 1616 2231 1378 2169  L 1441 2663  Q 1497 2656 1531 2656  Q 1891 2656 2178 2843  Q 2466 3031 2466 3422  Q 2466 3731 2256 3934  Q 2047 4138 1716 4138  Q 1388 4138 1169 3931  Q 950 3725 888 3313  L 325 3413  Q 428 3978 793 4289  Q 1159 4600 1703 4600  Q 2078 4600 2393 4439  Q 2709 4278 2876 4000  Q 3044 3722 3044 3409  Q 3044 3113 2884 2869  Q 2725 2625 2413 2481  Q 2819 2388 3044 2092  Q 3269 1797 3269 1353  Q 3269 753 2831 336  Q 2394 -81 1725 -81  Q 1122 -81 723 278  Q 325 638 269 1209  z " id="ArialMT-33" transform="scale(0.015625)" />
      <path d="M 1131 2484  Q 781 2613 612 2850  Q 444 3088 444 3419  Q 444 3919 803 4259  Q 1163 4600 1759 4600  Q 2359 4600 2725 4251  Q 3091 3903 3091 3403  Q 3091 3084 2923 2848  Q 2756 2613 2416 2484  Q 2838 2347 3058 2040  Q 3278 1734 3278 1309  Q 3278 722 2862 322  Q 2447 -78 1769 -78  Q 1091 -78 675 323  Q 259 725 259 1325  Q 259 1772 486 2073  Q 713 2375 1131 2484  z M 1019 3438  Q 1019 3113 1228 2906  Q 1438 2700 1772 2700  Q 2097 2700 2305 2904  Q 2513 3109 2513 3406  Q 2513 3716 2298 3927  Q 2084 4138 1766 4138  Q 1444 4138 1231 3931  Q 1019 3725 1019 3438  z M 838 1322  Q 838 1081 952 856  Q 1066 631 1291 507  Q 1516 384 1775 384  Q 2178 384 2440 643  Q 2703 903 2703 1303  Q 2703 1709 2433 1975  Q 2163 2241 1756 2241  Q 1359 2241 1098 1978  Q 838 1716 838 1322  z " id="ArialMT-38" transform="scale(0.015625)" />
     </defs>
     <use xlink:href="#ArialMT-6e" />
     <use x="55.615234" xlink:href="#ArialMT-3d" />
     <use x="114.013672" xlink:href="#ArialMT-31" />
     <use x="169.628906" xlink:href="#ArialMT-33" />
     <use x="225.244141" xlink:href="#ArialMT-38" />
    </g>
    
    <g style="fill:#444443;" transform="translate(29.036787 99.244411)scale(0.09 -0.09)">
     <defs>
      <path d="M 525 0  L 525 4581  L 3616 4581  L 3616 4041  L 1131 4041  L 1131 2622  L 3281 2622  L 3281 2081  L 1131 2081  L 1131 0  L 525 0  z " id="ArialMT-46" transform="scale(0.015625)" />
      <path d="M 2588 409  Q 2275 144 1986 34  Q 1697 -75 1366 -75  Q 819 -75 525 192  Q 231 459 231 875  Q 231 1119 342 1320  Q 453 1522 633 1644  Q 813 1766 1038 1828  Q 1203 1872 1538 1913  Q 2219 1994 2541 2106  Q 2544 2222 2544 2253  Q 2544 2597 2384 2738  Q 2169 2928 1744 2928  Q 1347 2928 1158 2789  Q 969 2650 878 2297  L 328 2372  Q 403 2725 575 2942  Q 747 3159 1072 3276  Q 1397 3394 1825 3394  Q 2250 3394 2515 3294  Q 2781 3194 2906 3042  Q 3031 2891 3081 2659  Q 3109 2516 3109 2141  L 3109 1391  Q 3109 606 3145 398  Q 3181 191 3288 0  L 2700 0  Q 2613 175 2588 409  z M 2541 1666  Q 2234 1541 1622 1453  Q 1275 1403 1131 1340  Q 988 1278 909 1158  Q 831 1038 831 891  Q 831 666 1001 516  Q 1172 366 1500 366  Q 1825 366 2078 508  Q 2331 650 2450 897  Q 2541 1088 2541 1459  L 2541 1666  z " id="ArialMT-61" transform="scale(0.015625)" />
      <path d="M 409 0  L 409 4581  L 972 4581  L 972 0  L 409 0  z " id="ArialMT-6c" transform="scale(0.015625)" />
      <path d="M 197 991  L 753 1078  Q 800 744 1014 566  Q 1228 388 1613 388  Q 2000 388 2187 545  Q 2375 703 2375 916  Q 2375 1106 2209 1216  Q 2094 1291 1634 1406  Q 1016 1563 777 1677  Q 538 1791 414 1992  Q 291 2194 291 2438  Q 291 2659 392 2848  Q 494 3038 669 3163  Q 800 3259 1026 3326  Q 1253 3394 1513 3394  Q 1903 3394 2198 3281  Q 2494 3169 2634 2976  Q 2775 2784 2828 2463  L 2278 2388  Q 2241 2644 2061 2787  Q 1881 2931 1553 2931  Q 1166 2931 1000 2803  Q 834 2675 834 2503  Q 834 2394 903 2306  Q 972 2216 1119 2156  Q 1203 2125 1616 2013  Q 2213 1853 2448 1751  Q 2684 1650 2818 1456  Q 2953 1263 2953 975  Q 2953 694 2789 445  Q 2625 197 2315 61  Q 2006 -75 1616 -75  Q 969 -75 630 194  Q 291 463 197 991  z " id="ArialMT-73" transform="scale(0.015625)" />
      <path d="M 2694 1069  L 3275 997  Q 3138 488 2766 206  Q 2394 -75 1816 -75  Q 1088 -75 661 373  Q 234 822 234 1631  Q 234 2469 665 2931  Q 1097 3394 1784 3394  Q 2450 3394 2872 2941  Q 3294 2488 3294 1666  Q 3294 1616 3291 1516  L 816 1516  Q 847 969 1125 678  Q 1403 388 1819 388  Q 2128 388 2347 550  Q 2566 713 2694 1069  z M 847 1978  L 2700 1978  Q 2663 2397 2488 2606  Q 2219 2931 1791 2931  Q 1403 2931 1139 2672  Q 875 2413 847 1978  z " id="ArialMT-65" transform="scale(0.015625)" />
     </defs>
     <use xlink:href="#ArialMT-46" />
     <use x="61.083984" xlink:href="#ArialMT-61" />
     <use x="116.699219" xlink:href="#ArialMT-6c" />
     <use x="138.916016" xlink:href="#ArialMT-73" />
     <use x="188.916016" xlink:href="#ArialMT-65" />
    </g>
   </g>
  </g>
 </g>
</svg></g>

<g id="edge1" class="edge">
<title>node0-&gt;leaf1</title>
<path fill="none" stroke="#444443" stroke-width="0.3" d="M70.73,-114.88C67.28,-106.69 63.36,-97.36 59.51,-88.2" />
<polygon fill="#444443" stroke="#444443" stroke-width="0.3" points="60.7,-87.43 57.86,-84.28 58.12,-88.51 60.7,-87.43" />
<text text-anchor="start" x="67.5" y="-95.8" font-family="Times,serif" font-size="14.00">&#8804;</text>
</g>

<g id="node3" class="node">
<title>leaf2</title>
<polygon fill="none" stroke="#444443" stroke-width="0" points="156.5,-84 88.5,-84 88.5,0 156.5,0 156.5,-84" />
<svg height="76px" version="1.1" viewBox="0 0 80.079997 101.033168" width="60px" preserveAspectRatio="xMinYMin meet" x="92.5" y="-80">
 <metadata>
  <rdf:RDF>
   <ns2:Work>
    <dc:type rdf:resource="http://purl.org/dc/dcmitype/StillImage" />
    <dc:date>2022-01-18T22:47:36.802397</dc:date>
    <dc:format>image/svg+xml</dc:format>
    <dc:creator>
     <ns2:Agent>
      <dc:title>Matplotlib v3.4.0, https://matplotlib.org/</dc:title>
     </ns2:Agent>
    </dc:creator>
   </ns2:Work>
  </rdf:RDF>
 </metadata>
 <defs>
  <style type="text/css">*{stroke-linecap:butt;stroke-linejoin:round;}</style>
 </defs>
 <g id="figure_1">
  <g id="patch_1">
   <path d="M 0 101.033168  L 80.079997 101.033168  L 80.079997 0  L 0 0  z " style="fill:#ffffff;" />
  </g>
  <g id="axes_1">
   <g id="patch_2">
    <path d="M 80.079997 40.039999  C 80.079997 29.799404 76.151308 19.939139 69.108857 12.504513  C 62.066405 5.069887 52.433296 0.613136 42.20772 0.058721  L 40.039997 40.039999  L 80.079997 40.039999  z " style="fill:#fefebb;stroke:#444443;stroke-linejoin:miter;stroke-width:0.5;" />
   </g>
   <g id="patch_3">
    <path d="M 42.20772 0.058721  C 38.230124 -0.156938 34.242521 0.222181 30.376829 1.183535  C 26.511137 2.14489 22.810459 3.677761 19.397221 5.731437  C 15.983984 7.785114 12.896245 10.336697 10.236154 13.301776  C 7.576063 16.266855 5.37328 19.612368 3.700678 23.227638  C 2.028075 26.842908 0.904304 30.687625 0.366539 34.634597  C -0.171225 38.581569 -0.116986 42.586786 0.527462 46.517748  C 1.171911 50.448711 2.399382 54.261586 4.16927 57.830238  C 5.939158 61.39889 8.231728 64.683526 10.971135 67.575484  C 13.710543 70.467442 16.866245 72.934476 20.333843 74.894972  C 23.801441 76.855467 27.54227 78.287564 31.432578 79.143886  C 35.322885 80.000207 39.319292 80.271206 43.289589 79.947915  C 47.259886 79.624625 51.159804 78.71065 54.860326 77.236228  C 58.560847 75.761806 62.020709 73.743377 65.125455 71.247713  C 68.2302 68.75205 70.945208 65.80698 73.180662 62.509932  C 75.416116 59.212885 77.14709 55.600622 78.316319 51.792647  C 79.485549 47.984671 80.079996 44.023441 80.079997 40.040003  L 40.039997 40.039999  L 42.20772 0.058721  z " style="fill:#a1dab4;stroke:#444443;stroke-linejoin:miter;stroke-width:0.5;" />
   </g>
   <g id="text_1">
    
    <g style="fill:#444443;" transform="translate(27.733903 89.725231)scale(0.09 -0.09)">
     <defs>
      <path d="M 422 0  L 422 3319  L 928 3319  L 928 2847  Q 1294 3394 1984 3394  Q 2284 3394 2536 3286  Q 2788 3178 2913 3003  Q 3038 2828 3088 2588  Q 3119 2431 3119 2041  L 3119 0  L 2556 0  L 2556 2019  Q 2556 2363 2490 2533  Q 2425 2703 2258 2804  Q 2091 2906 1866 2906  Q 1506 2906 1245 2678  Q 984 2450 984 1813  L 984 0  L 422 0  z " id="ArialMT-6e" transform="scale(0.015625)" />
      <path d="M 3381 2694  L 356 2694  L 356 3219  L 3381 3219  L 3381 2694  z M 3381 1303  L 356 1303  L 356 1828  L 3381 1828  L 3381 1303  z " id="ArialMT-3d" transform="scale(0.015625)" />
      <path d="M 2384 0  L 1822 0  L 1822 3584  Q 1619 3391 1289 3197  Q 959 3003 697 2906  L 697 3450  Q 1169 3672 1522 3987  Q 1875 4303 2022 4600  L 2384 4600  L 2384 0  z " id="ArialMT-31" transform="scale(0.015625)" />
      <path d="M 3184 3459  L 2625 3416  Q 2550 3747 2413 3897  Q 2184 4138 1850 4138  Q 1581 4138 1378 3988  Q 1113 3794 959 3422  Q 806 3050 800 2363  Q 1003 2672 1297 2822  Q 1591 2972 1913 2972  Q 2475 2972 2870 2558  Q 3266 2144 3266 1488  Q 3266 1056 3080 686  Q 2894 316 2569 119  Q 2244 -78 1831 -78  Q 1128 -78 684 439  Q 241 956 241 2144  Q 241 3472 731 4075  Q 1159 4600 1884 4600  Q 2425 4600 2770 4297  Q 3116 3994 3184 3459  z M 888 1484  Q 888 1194 1011 928  Q 1134 663 1356 523  Q 1578 384 1822 384  Q 2178 384 2434 671  Q 2691 959 2691 1453  Q 2691 1928 2437 2201  Q 2184 2475 1800 2475  Q 1419 2475 1153 2201  Q 888 1928 888 1484  z " id="ArialMT-36" transform="scale(0.015625)" />
     </defs>
     <use xlink:href="#ArialMT-6e" />
     <use x="55.615234" xlink:href="#ArialMT-3d" />
     <use x="114.013672" xlink:href="#ArialMT-31" />
     <use x="162.253906" xlink:href="#ArialMT-31" />
     <use x="217.869141" xlink:href="#ArialMT-36" />
    </g>
    
    <g style="fill:#444443;" transform="translate(29.036794 99.244418)scale(0.09 -0.09)">
     <defs>
      <path d="M 525 0  L 525 4581  L 3616 4581  L 3616 4041  L 1131 4041  L 1131 2622  L 3281 2622  L 3281 2081  L 1131 2081  L 1131 0  L 525 0  z " id="ArialMT-46" transform="scale(0.015625)" />
      <path d="M 2588 409  Q 2275 144 1986 34  Q 1697 -75 1366 -75  Q 819 -75 525 192  Q 231 459 231 875  Q 231 1119 342 1320  Q 453 1522 633 1644  Q 813 1766 1038 1828  Q 1203 1872 1538 1913  Q 2219 1994 2541 2106  Q 2544 2222 2544 2253  Q 2544 2597 2384 2738  Q 2169 2928 1744 2928  Q 1347 2928 1158 2789  Q 969 2650 878 2297  L 328 2372  Q 403 2725 575 2942  Q 747 3159 1072 3276  Q 1397 3394 1825 3394  Q 2250 3394 2515 3294  Q 2781 3194 2906 3042  Q 3031 2891 3081 2659  Q 3109 2516 3109 2141  L 3109 1391  Q 3109 606 3145 398  Q 3181 191 3288 0  L 2700 0  Q 2613 175 2588 409  z M 2541 1666  Q 2234 1541 1622 1453  Q 1275 1403 1131 1340  Q 988 1278 909 1158  Q 831 1038 831 891  Q 831 666 1001 516  Q 1172 366 1500 366  Q 1825 366 2078 508  Q 2331 650 2450 897  Q 2541 1088 2541 1459  L 2541 1666  z " id="ArialMT-61" transform="scale(0.015625)" />
      <path d="M 409 0  L 409 4581  L 972 4581  L 972 0  L 409 0  z " id="ArialMT-6c" transform="scale(0.015625)" />
      <path d="M 197 991  L 753 1078  Q 800 744 1014 566  Q 1228 388 1613 388  Q 2000 388 2187 545  Q 2375 703 2375 916  Q 2375 1106 2209 1216  Q 2094 1291 1634 1406  Q 1016 1563 777 1677  Q 538 1791 414 1992  Q 291 2194 291 2438  Q 291 2659 392 2848  Q 494 3038 669 3163  Q 800 3259 1026 3326  Q 1253 3394 1513 3394  Q 1903 3394 2198 3281  Q 2494 3169 2634 2976  Q 2775 2784 2828 2463  L 2278 2388  Q 2241 2644 2061 2787  Q 1881 2931 1553 2931  Q 1166 2931 1000 2803  Q 834 2675 834 2503  Q 834 2394 903 2306  Q 972 2216 1119 2156  Q 1203 2125 1616 2013  Q 2213 1853 2448 1751  Q 2684 1650 2818 1456  Q 2953 1263 2953 975  Q 2953 694 2789 445  Q 2625 197 2315 61  Q 2006 -75 1616 -75  Q 969 -75 630 194  Q 291 463 197 991  z " id="ArialMT-73" transform="scale(0.015625)" />
      <path d="M 2694 1069  L 3275 997  Q 3138 488 2766 206  Q 2394 -75 1816 -75  Q 1088 -75 661 373  Q 234 822 234 1631  Q 234 2469 665 2931  Q 1097 3394 1784 3394  Q 2450 3394 2872 2941  Q 3294 2488 3294 1666  Q 3294 1616 3291 1516  L 816 1516  Q 847 969 1125 678  Q 1403 388 1819 388  Q 2128 388 2347 550  Q 2566 713 2694 1069  z M 847 1978  L 2700 1978  Q 2663 2397 2488 2606  Q 2219 2931 1791 2931  Q 1403 2931 1139 2672  Q 875 2413 847 1978  z " id="ArialMT-65" transform="scale(0.015625)" />
     </defs>
     <use xlink:href="#ArialMT-46" />
     <use x="61.083984" xlink:href="#ArialMT-61" />
     <use x="116.699219" xlink:href="#ArialMT-6c" />
     <use x="138.916016" xlink:href="#ArialMT-73" />
     <use x="188.916016" xlink:href="#ArialMT-65" />
    </g>
   </g>
  </g>
 </g>
</svg></g>

<g id="edge2" class="edge">
<title>node0-&gt;leaf2</title>
<path fill="none" stroke="#444443" stroke-width="0.3" d="M92.27,-114.88C95.72,-106.69 99.64,-97.36 103.49,-88.2" />
<polygon fill="#444443" stroke="#444443" stroke-width="0.3" points="104.88,-88.51 105.14,-84.28 102.3,-87.43 104.88,-88.51" />
<text text-anchor="start" x="101.5" y="-95.8" font-family="Times,serif" font-size="14.00">&gt;</text>
</g>


<g id="node4" class="node">
<title>legend</title>
<polygon fill="none" stroke="black" stroke-width="0" points="246.5,-164.5 170.5,-164.5 170.5,-118.5 246.5,-118.5 246.5,-164.5" />
<svg height="42px" version="1.1" viewBox="0 0 95.176563 55.44" width="72px" preserveAspectRatio="xMinYMin meet" x="172.5" y="-162.5">
 <metadata>
  <rdf:RDF>
   <ns2:Work>
    <dc:type rdf:resource="http://purl.org/dc/dcmitype/StillImage" />
    <dc:date>2022-01-18T22:47:36.348820</dc:date>
    <dc:format>image/svg+xml</dc:format>
    <dc:creator>
     <ns2:Agent>
      <dc:title>Matplotlib v3.4.0, https://matplotlib.org/</dc:title>
     </ns2:Agent>
    </dc:creator>
   </ns2:Work>
  </rdf:RDF>
 </metadata>
 <defs>
  <style type="text/css">*{stroke-linecap:butt;stroke-linejoin:round;}</style>
 </defs>
 <g id="figure_1">
  <g id="patch_1">
   <path d="M 0 55.44  L 95.176563 55.44  L 95.176563 0  L 0 0  z " style="fill:#ffffff;" />
  </g>
  <g id="axes_1">
   <g id="legend_1">
    <g id="patch_2">
     <path d="M 2 54.843437  L 93.176563 54.843437  Q 95.176563 54.843437 95.176563 52.843437  L 95.176563 2.596562  Q 95.176563 0.596562 93.176563 0.596562  L 2 0.596562  Q 0 0.596562 0 2.596562  L 0 52.843437  Q 0 54.843437 2 54.843437  z " style="fill:#ffffff;opacity:0.8;stroke:#444443;stroke-linejoin:miter;stroke-width:0.5;" />
    </g>
    <g id="text_1">
     
     <g style="fill:#444443;" transform="translate(8 16.195)scale(0.1 -0.1)">
      <defs>
       <path d="M 2106 1575  Q 1756 1575 1579 1456  Q 1403 1338 1403 1106  Q 1403 894 1545 773  Q 1688 653 1941 653  Q 2256 653 2472 879  Q 2688 1106 2688 1447  L 2688 1575  L 2106 1575  z M 3816 1997  L 3816 0  L 2688 0  L 2688 519  Q 2463 200 2181 54  Q 1900 -91 1497 -91  Q 953 -91 614 226  Q 275 544 275 1050  Q 275 1666 698 1953  Q 1122 2241 2028 2241  L 2688 2241  L 2688 2328  Q 2688 2594 2478 2717  Q 2269 2841 1825 2841  Q 1466 2841 1156 2769  Q 847 2697 581 2553  L 581 3406  Q 941 3494 1303 3539  Q 1666 3584 2028 3584  Q 2975 3584 3395 3211  Q 3816 2838 3816 1997  z " id="DejaVuSans-Bold-61" transform="scale(0.015625)" />
       <path d="M 3366 3391  L 3366 2478  Q 3138 2634 2908 2709  Q 2678 2784 2431 2784  Q 1963 2784 1702 2511  Q 1441 2238 1441 1747  Q 1441 1256 1702 982  Q 1963 709 2431 709  Q 2694 709 2930 787  Q 3166 866 3366 1019  L 3366 103  Q 3103 6 2833 -42  Q 2563 -91 2291 -91  Q 1344 -91 809 395  Q 275 881 275 1747  Q 275 2613 809 3098  Q 1344 3584 2291 3584  Q 2566 3584 2833 3536  Q 3100 3488 3366 3391  z " id="DejaVuSans-Bold-63" transform="scale(0.015625)" />
       <path d="M 500 1363  L 500 3500  L 1625 3500  L 1625 3150  Q 1625 2866 1622 2436  Q 1619 2006 1619 1863  Q 1619 1441 1641 1255  Q 1663 1069 1716 984  Q 1784 875 1895 815  Q 2006 756 2150 756  Q 2500 756 2700 1025  Q 2900 1294 2900 1772  L 2900 3500  L 4019 3500  L 4019 0  L 2900 0  L 2900 506  Q 2647 200 2364 54  Q 2081 -91 1741 -91  Q 1134 -91 817 281  Q 500 653 500 1363  z " id="DejaVuSans-Bold-75" transform="scale(0.015625)" />
       <path d="M 3138 2547  Q 2991 2616 2845 2648  Q 2700 2681 2553 2681  Q 2122 2681 1889 2404  Q 1656 2128 1656 1613  L 1656 0  L 538 0  L 538 3500  L 1656 3500  L 1656 2925  Q 1872 3269 2151 3426  Q 2431 3584 2822 3584  Q 2878 3584 2943 3579  Q 3009 3575 3134 3559  L 3138 2547  z " id="DejaVuSans-Bold-72" transform="scale(0.015625)" />
       <path d="M 78 3500  L 1197 3500  L 2138 1125  L 2938 3500  L 4056 3500  L 2584 -331  Q 2363 -916 2067 -1148  Q 1772 -1381 1288 -1381  L 641 -1381  L 641 -647  L 991 -647  Q 1275 -647 1404 -556  Q 1534 -466 1606 -231  L 1638 -134  L 78 3500  z " id="DejaVuSans-Bold-79" transform="scale(0.015625)" />
       <path d="M 3200 -916  L 3200 -1509  L 0 -1509  L 0 -916  L 3200 -916  z " id="DejaVuSans-Bold-5f" transform="scale(0.015625)" />
       <path d="M 2400 722  Q 2759 722 2948 984  Q 3138 1247 3138 1747  Q 3138 2247 2948 2509  Q 2759 2772 2400 2772  Q 2041 2772 1848 2508  Q 1656 2244 1656 1747  Q 1656 1250 1848 986  Q 2041 722 2400 722  z M 1656 2988  Q 1888 3294 2169 3439  Q 2450 3584 2816 3584  Q 3463 3584 3878 3070  Q 4294 2556 4294 1747  Q 4294 938 3878 423  Q 3463 -91 2816 -91  Q 2450 -91 2169 54  Q 1888 200 1656 506  L 1656 0  L 538 0  L 538 4863  L 1656 4863  L 1656 2988  z " id="DejaVuSans-Bold-62" transform="scale(0.015625)" />
       <path d="M 2203 2784  Q 1831 2784 1636 2517  Q 1441 2250 1441 1747  Q 1441 1244 1636 976  Q 1831 709 2203 709  Q 2569 709 2762 976  Q 2956 1244 2956 1747  Q 2956 2250 2762 2517  Q 2569 2784 2203 2784  z M 2203 3584  Q 3106 3584 3614 3096  Q 4122 2609 4122 1747  Q 4122 884 3614 396  Q 3106 -91 2203 -91  Q 1297 -91 786 396  Q 275 884 275 1747  Q 275 2609 786 3096  Q 1297 3584 2203 3584  z " id="DejaVuSans-Bold-6f" transform="scale(0.015625)" />
       <path d="M 538 4863  L 1656 4863  L 1656 0  L 538 0  L 538 4863  z " id="DejaVuSans-Bold-6c" transform="scale(0.015625)" />
      </defs>
      <use xlink:href="#DejaVuSans-Bold-61" />
      <use x="67.480469" xlink:href="#DejaVuSans-Bold-63" />
      <use x="126.757812" xlink:href="#DejaVuSans-Bold-63" />
      <use x="186.035156" xlink:href="#DejaVuSans-Bold-75" />
      <use x="257.226562" xlink:href="#DejaVuSans-Bold-72" />
      <use x="306.542969" xlink:href="#DejaVuSans-Bold-61" />
      <use x="374.023438" xlink:href="#DejaVuSans-Bold-63" />
      <use x="433.300781" xlink:href="#DejaVuSans-Bold-79" />
      <use x="498.486328" xlink:href="#DejaVuSans-Bold-5f" />
      <use x="548.486328" xlink:href="#DejaVuSans-Bold-62" />
      <use x="620.068359" xlink:href="#DejaVuSans-Bold-6f" />
      <use x="688.769531" xlink:href="#DejaVuSans-Bold-6f" />
      <use x="757.470703" xlink:href="#DejaVuSans-Bold-6c" />
     </g>
    </g>
    <g id="patch_3">
     <path d="M 23.6125 30.710625  L 43.6125 30.710625  L 43.6125 23.710625  L 23.6125 23.710625  z " style="fill:#fefebb;stroke:#444443;stroke-linejoin:miter;stroke-width:0.4;" />
    </g>
    <g id="text_2">
     
     <g style="fill:#444443;" transform="translate(47.1125 30.710625)scale(0.1 -0.1)">
      <defs>
       <path d="M 1659 0  L 1659 4041  L 150 4041  L 150 4581  L 3781 4581  L 3781 4041  L 2266 4041  L 2266 0  L 1659 0  z " id="ArialMT-54" transform="scale(0.015625)" />
       <path d="M 416 0  L 416 3319  L 922 3319  L 922 2816  Q 1116 3169 1280 3281  Q 1444 3394 1641 3394  Q 1925 3394 2219 3213  L 2025 2691  Q 1819 2813 1613 2813  Q 1428 2813 1281 2702  Q 1134 2591 1072 2394  Q 978 2094 978 1738  L 978 0  L 416 0  z " id="ArialMT-72" transform="scale(0.015625)" />
       <path d="M 2597 0  L 2597 488  Q 2209 -75 1544 -75  Q 1250 -75 995 37  Q 741 150 617 320  Q 494 491 444 738  Q 409 903 409 1263  L 409 3319  L 972 3319  L 972 1478  Q 972 1038 1006 884  Q 1059 663 1231 536  Q 1403 409 1656 409  Q 1909 409 2131 539  Q 2353 669 2445 892  Q 2538 1116 2538 1541  L 2538 3319  L 3100 3319  L 3100 0  L 2597 0  z " id="ArialMT-75" transform="scale(0.015625)" />
       <path d="M 2694 1069  L 3275 997  Q 3138 488 2766 206  Q 2394 -75 1816 -75  Q 1088 -75 661 373  Q 234 822 234 1631  Q 234 2469 665 2931  Q 1097 3394 1784 3394  Q 2450 3394 2872 2941  Q 3294 2488 3294 1666  Q 3294 1616 3291 1516  L 816 1516  Q 847 969 1125 678  Q 1403 388 1819 388  Q 2128 388 2347 550  Q 2566 713 2694 1069  z M 847 1978  L 2700 1978  Q 2663 2397 2488 2606  Q 2219 2931 1791 2931  Q 1403 2931 1139 2672  Q 875 2413 847 1978  z " id="ArialMT-65" transform="scale(0.015625)" />
      </defs>
      <use xlink:href="#ArialMT-54" />
      <use x="57.333984" xlink:href="#ArialMT-72" />
      <use x="90.634766" xlink:href="#ArialMT-75" />
      <use x="146.25" xlink:href="#ArialMT-65" />
     </g>
    </g>
    <g id="patch_4">
     <path d="M 23.6125 44.855937  L 43.6125 44.855937  L 43.6125 37.855937  L 23.6125 37.855937  z " style="fill:#a1dab4;stroke:#444443;stroke-linejoin:miter;stroke-width:0.4;" />
    </g>
    <g id="text_3">
     
     <g style="fill:#444443;" transform="translate(47.1125 44.855937)scale(0.1 -0.1)">
      <defs>
       <path d="M 525 0  L 525 4581  L 3616 4581  L 3616 4041  L 1131 4041  L 1131 2622  L 3281 2622  L 3281 2081  L 1131 2081  L 1131 0  L 525 0  z " id="ArialMT-46" transform="scale(0.015625)" />
       <path d="M 2588 409  Q 2275 144 1986 34  Q 1697 -75 1366 -75  Q 819 -75 525 192  Q 231 459 231 875  Q 231 1119 342 1320  Q 453 1522 633 1644  Q 813 1766 1038 1828  Q 1203 1872 1538 1913  Q 2219 1994 2541 2106  Q 2544 2222 2544 2253  Q 2544 2597 2384 2738  Q 2169 2928 1744 2928  Q 1347 2928 1158 2789  Q 969 2650 878 2297  L 328 2372  Q 403 2725 575 2942  Q 747 3159 1072 3276  Q 1397 3394 1825 3394  Q 2250 3394 2515 3294  Q 2781 3194 2906 3042  Q 3031 2891 3081 2659  Q 3109 2516 3109 2141  L 3109 1391  Q 3109 606 3145 398  Q 3181 191 3288 0  L 2700 0  Q 2613 175 2588 409  z M 2541 1666  Q 2234 1541 1622 1453  Q 1275 1403 1131 1340  Q 988 1278 909 1158  Q 831 1038 831 891  Q 831 666 1001 516  Q 1172 366 1500 366  Q 1825 366 2078 508  Q 2331 650 2450 897  Q 2541 1088 2541 1459  L 2541 1666  z " id="ArialMT-61" transform="scale(0.015625)" />
       <path d="M 409 0  L 409 4581  L 972 4581  L 972 0  L 409 0  z " id="ArialMT-6c" transform="scale(0.015625)" />
       <path d="M 197 991  L 753 1078  Q 800 744 1014 566  Q 1228 388 1613 388  Q 2000 388 2187 545  Q 2375 703 2375 916  Q 2375 1106 2209 1216  Q 2094 1291 1634 1406  Q 1016 1563 777 1677  Q 538 1791 414 1992  Q 291 2194 291 2438  Q 291 2659 392 2848  Q 494 3038 669 3163  Q 800 3259 1026 3326  Q 1253 3394 1513 3394  Q 1903 3394 2198 3281  Q 2494 3169 2634 2976  Q 2775 2784 2828 2463  L 2278 2388  Q 2241 2644 2061 2787  Q 1881 2931 1553 2931  Q 1166 2931 1000 2803  Q 834 2675 834 2503  Q 834 2394 903 2306  Q 972 2216 1119 2156  Q 1203 2125 1616 2013  Q 2213 1853 2448 1751  Q 2684 1650 2818 1456  Q 2953 1263 2953 975  Q 2953 694 2789 445  Q 2625 197 2315 61  Q 2006 -75 1616 -75  Q 969 -75 630 194  Q 291 463 197 991  z " id="ArialMT-73" transform="scale(0.015625)" />
      </defs>
      <use xlink:href="#ArialMT-46" />
      <use x="61.083984" xlink:href="#ArialMT-61" />
      <use x="116.699219" xlink:href="#ArialMT-6c" />
      <use x="138.916016" xlink:href="#ArialMT-73" />
      <use x="188.916016" xlink:href="#ArialMT-65" />
     </g>
    </g>
   </g>
  </g>
 </g>
</svg></g>
</g>
</svg>